#!OML:ASF E:\Steps\Project 1\Capture day 1\Session 2\Subject.ASF
:FULLY-SPECIFIED
:DEGREES
270
root 3.93451 18.739 16.6195 -160.246 3.62374 -186.981
lowerback -22.5513 -2.81724 -13.5457
upperback -0.226659 0.727048 -2.50392
thorax 12.4375 -0.163536 5.15001
lowerneck -3.18528 -2.12368 0.127086
upperneck 19.9375 -1.96795 1.74363
head 6.59386 -0.296405 0.466336
rclavicle -2.28602e-015 -4.21423e-014
rhumerus -43.5679 -15.2785 -76.8885
rradius 34.3756
rwrist -1.80254
rhand -7.8979 -53.5899
rfingers 7.12502
rthumb 18.0071 -82.7763
lclavicle -2.28602e-015 -4.21423e-014
lhumerus -31.616 2.81424 77.6864
lradius 26.4828
lwrist -2.99595
lhand -20.9917 -13.9575
lfingers 7.12502
lthumb 5.38238 15.9541
rfemur -19.2784 3.31624 15.6428
rtibia 5.82614
rfoot -15.2389 1.90167
rtoes -9.90643
lfemur -16.1429 -7.91517 -28.6497
ltibia 5.22649
lfoot -7.01166 1.09802
ltoes -43.1395
271
root 3.93406 18.7367 16.6088 -160.144 3.73274 -186.889
lowerback -22.7192 -2.79014 -13.4404
upperback -0.388972 0.761096 -2.48744
thorax 12.3341 -0.12255 5.12546
lowerneck -2.82525 -2.18052 0.279902
upperneck 19.3888 -2.08746 1.70798
head 6.35443 -0.370258 0.420948
rclavicle -6.95746e-016 1.19271e-014
rhumerus -43.6205 -15.8609 -76.4818
rradius 33.8564
rwrist -1.28671
rhand -7.90895 -53.3935
rfingers 7.12502
rthumb 17.9964 -82.5808
lclavicle -6.95746e-016 1.19271e-014
lhumerus -31.5789 3.49059 77.4183
lradius 25.5965
lwrist -3.29444
lhand -21.602 -14.0713
lfingers 7.12502
lthumb 4.79309 15.8544
rfemur -19.3911 2.73826 15.8175
rtibia 5.86958
rfoot -15.1831 2.49337
rtoes -9.90641
lfemur -16.1997 -7.70686 -28.5923
ltibia 5.22419
lfoot -6.98854 1.02209
ltoes -43.8538
272
root 3.93401 18.7335 16.5947 -160.101 3.82999 -186.787
lowerback -22.8555 -2.78316 -13.3579
upperback -0.54129 0.760909 -2.43274
thorax 12.23 -0.102387 5.14559
lowerneck -2.70831 -2.21387 0.437549
upperneck 19.1381 -2.12964 1.47914
head 6.25017 -0.409989 0.31862
rclavicle -1.68967e-015 5.00937e-014
rhumerus -43.6967 -16.2978 -76.0842
rradius 33.462
rwrist -0.974603
rhand -7.67705 -53.5439
rfingers 7.12502
rthumb 18.2196 -82.7107
lclavicle -1.68967e-015 5.00937e-014
lhumerus -31.6151 4.34773 77.1448
lradius 24.8904
lwrist -3.37158
lhand -21.7102 -13.4301
lfingers 7.12502
lthumb 4.68861 16.498
rfemur -19.396 2.47445 15.961
rtibia 5.85736
rfoot -15.1142 2.84765
rtoes -9.62758
lfemur -16.1939 -7.57688 -28.5209
ltibia 5.26411
lfoot -7.04034 1.08666
ltoes -44.814
273
root 3.93241 18.731 16.5787 -160.115 3.82275 -186.685
lowerback -22.9878 -2.81197 -13.2312
upperback -0.590249 0.688793 -2.32745
thorax 12.2571 -0.133862 5.17268
lowerneck -3.18696 -2.18178 0.115315
upperneck 19.3123 -2.09755 1.55916
head 6.39339 -0.414732 0.396141
rclavicle 7.15625e-015 -1.90833e-014
rhumerus -43.64 -16.5512 -75.7238
rradius 33.1879
rwrist -0.86801
rhand -7.79542 -53.5168
rfingers 7.12502
rthumb 18.1057 -82.6941
lclavicle 7.15625e-015 -1.90833e-014
lhumerus -31.5089 5.26619 76.9429
lradius 24.1876
lwrist -3.44588
lhand -21.6026 -13.1634
lfingers 7.12502
lthumb 4.79248 16.7624
rfemur -19.3258 2.45123 16.0744
rtibia 5.89707
rfoot -15.1321 3.02199
rtoes -8.89272
lfemur -16.1191 -7.78579 -28.3836
ltibia 5.27704
lfoot -7.11136 1.24511
ltoes -43.8733
274
root 3.92823 18.7296 16.5641 -160.071 3.82483 -186.602
lowerback -23.2669 -2.89363 -13.0808
upperback -0.489634 0.55248 -2.15931
thorax 12.5525 -0.226573 5.23434
lowerneck -3.57949 -1.9165 -0.632968
upperneck 18.765 -1.85453 2.12586
head 6.29872 -0.349772 0.709719
rclavicle 3.37934e-015 -4.73108e-014
rhumerus -43.0862 -16.6036 -75.4509
rradius 32.7993
rwrist -0.819833
rhand -8.10494 -53.6848
rfingers 7.12502
rthumb 17.8079 -82.8895
lclavicle 3.37934e-015 -4.73108e-014
lhumerus -31.1254 6.49111 76.8333
lradius 23.3195
lwrist -3.73045
lhand -21.6906 -13.6076
lfingers 7.12502
lthumb 4.7075 16.3201
rfemur -19.3036 2.47427 16.1448
rtibia 5.89374
rfoot -15.148 3.07936
rtoes -8.66425
lfemur -16.1042 -7.99396 -28.2694
ltibia 5.20842
lfoot -7.11905 1.38571
ltoes -42.6701
